#usda 1.0

def "Island"
{
    def Scope "Town"
    {
        def PointInstancer "Buildings"
        {
            float3[] extent = [(-702.3821, 4.7888145, -854.16156), (827.8519, 144.32437, 893.4664)]
            quath[] orientations = [(1, 0, 0, 0), (1, 0, 0, 0), (1, 0, 0, 0), (1, 0, 0, 0), (1, 0, 0, 0), (1, 0, 0, 0), (0.712891, -0, -0.701172, -0), (0.712891, -0, -0.701172, -0), (0.712891, -0, -0.701172, -0), (0.712891, -0, -0.701172, -0), (0.712891, -0, -0.701172, -0), (0.712891, -0, -0.701172, -0), (0.712891, -0, -0.701172, -0), (0.712891, -0, -0.701172, -0), (0, -0, -1, -0), (0, -0, -1, -0), (0, -0, -1, -0), (0, -0, -1, -0), (0, -0, -1, -0), (0, -0, -1, -0), (0.0196838, -0, -1, -0), (0.0196838, -0, -1, -0), (0.0196838, -0, -1, -0), (0.0196838, -0, -1, -0), (0.0196838, -0, -1, -0), (0.760742, 0, 0.648926, 0), (0.760742, 0, 0.648926, 0), (0.760742, 0, 0.648926, 0), (0.760742, 0, 0.648926, 0), (0.760742, 0, 0.648926, 0), (0.760742, 0, 0.648926, 0), (0.760742, 0, 0.648926, 0), (0.760742, 0, 0.648926, 0), (0.602051, 0, 0.79834, 0), (0.602051, 0, 0.79834, 0), (0.602051, 0, 0.79834, 0), (0.602051, 0, 0.79834, 0), (0.614746, -0, -0.789062, -0), (0.614746, -0, -0.789062, -0), (0.614746, -0, -0.789062, -0), (0.614746, -0, -0.789062, -0), (0.614746, -0, -0.789062, -0), (0.614746, -0, -0.789062, -0), (0.614746, -0, -0.789062, -0), (0.49292, 0, 0.870117, 0), (0.49292, 0, 0.870117, 0), (0.49292, 0, 0.870117, 0), (0.49292, 0, 0.870117, 0), (0.49292, 0, 0.870117, 0), (0.0930176, 0, 0.995605, 0), (0.0930176, 0, 0.995605, 0), (0.0930176, 0, 0.995605, 0), (0.0930176, 0, 0.995605, 0), (0.0930176, 0, 0.995605, 0), (0.0930176, 0, 0.995605, 0), (0.870605, -0, -0.492432, -0), (0.870605, -0, -0.492432, -0), (0.870605, -0, -0.492432, -0), (0.870605, -0, -0.492432, -0), (0.870605, -0, -0.492432, -0), (0.870605, -0, -0.492432, -0), (0.870605, -0, -0.492432, -0), (0.793457, 0, 0.608398, 0), (0.793457, 0, 0.608398, 0), (0.793457, 0, 0.608398, 0), (0.793457, 0, 0.608398, 0), (0.793457, 0, 0.608398, 0), (0.838867, 0, 0.543945, 0), (0.838867, 0, 0.543945, 0), (0.838867, 0, 0.543945, 0), (0.838867, 0, 0.543945, 0), (0.956543, -0, -0.292236, -0), (0.956543, -0, -0.292236, -0), (0.956543, -0, -0.292236, -0), (0.956543, -0, -0.292236, -0), (0.956543, -0, -0.292236, -0), (0.748535, 0, 0.663086, 0), (0.748535, 0, 0.663086, 0), (0.748535, 0, 0.663086, 0), (0.748535, 0, 0.663086, 0), (0.748535, 0, 0.663086, 0), (0.748535, 0, 0.663086, 0), (0.603516, -0, -0.797363, -0), (0.603516, -0, -0.797363, -0), (0.603516, -0, -0.797363, -0), (0.603516, -0, -0.797363, -0), (0.603516, -0, -0.797363, -0), (0.293701, -0, -0.956055, -0), (0.293701, -0, -0.956055, -0), (0.293701, -0, -0.956055, -0), (0.293701, -0, -0.956055, -0), (0.293701, -0, -0.956055, -0), (0.293701, -0, -0.956055, -0), (0.937012, 0, 0.349609, 0), (0.937012, 0, 0.349609, 0), (0.937012, 0, 0.349609, 0), (0.937012, 0, 0.349609, 0), (0.937012, 0, 0.349609, 0), (0.874512, 0, 0.485107, 0), (0.272949, 0, 0.961914, 0), (0.272949, 0, 0.961914, 0), (0.272949, 0, 0.961914, 0), (0.272949, 0, 0.961914, 0), (0.272949, 0, 0.961914, 0), (0.113098, 0, 0.993652, 0), (0.113098, 0, 0.993652, 0), (0.113098, 0, 0.993652, 0), (0.113098, 0, 0.993652, 0), (0.113098, 0, 0.993652, 0), (0.626953, -0, -0.778809, -0), (0.626953, -0, -0.778809, -0), (0.626953, -0, -0.778809, -0), (0.626953, -0, -0.778809, -0), (0.391357, -0, -0.92041, -0), (0.391357, -0, -0.92041, -0), (0.391357, -0, -0.92041, -0), (0.391357, -0, -0.92041, -0), (0.391357, -0, -0.92041, -0), (0.391357, -0, -0.92041, -0), (0.391357, -0, -0.92041, -0), (0.42627, 0, 0.904785, 0), (0.42627, 0, 0.904785, 0), (0.851074, -0, -0.524902, -0), (0.851074, -0, -0.524902, -0), (0.851074, -0, -0.524902, -0), (0.851074, -0, -0.524902, -0), (0.851074, -0, -0.524902, -0), (0.851074, -0, -0.524902, -0), (0.117554, -0, -0.993164, -0), (0.117554, -0, -0.993164, -0), (0.117554, -0, -0.993164, -0), (0.117554, -0, -0.993164, -0), (0.117554, -0, -0.993164, -0), (0.791504, -0, -0.61084, -0), (0.791504, -0, -0.61084, -0), (0.791504, -0, -0.61084, -0), (0.791504, -0, -0.61084, -0), (1, -0, -0.000165939, -0), (1, -0, -0.000165939, -0), (1, -0, -0.000165939, -0), (1, -0, -0.000165939, -0), (1, -0, -0.000165939, -0), (1, -0, -0.000165939, -0), (1, -0, -0.000165939, -0), (1, -0, -0.000165939, -0), (0.652832, 0, 0.757324, 0), (0.652832, 0, 0.757324, 0), (0.652832, 0, 0.757324, 0), (0.652832, 0, 0.757324, 0), (0.136841, 0, 0.990723, 0), (0.136841, 0, 0.990723, 0), (0.136841, 0, 0.990723, 0), (0.136841, 0, 0.990723, 0), (1, -0, -0.0116501, -0), (1, 0, 0, 0), (1, 0, 0, 0), (1, 0, 0, 0), (1, 0, 0, 0), (1, 0, 0, 0), (1, 0, 0, 0), (0.653809, 0, 0.756348, 0), (0.653809, 0, 0.756348, 0), (0.653809, 0, 0.756348, 0), (0.653809, 0, 0.756348, 0), (0.653809, 0, 0.756348, 0), (0.653809, 0, 0.756348, 0), (0.117554, -0, -0.993164, -0), (0.117554, -0, -0.993164, -0), (0.117554, -0, -0.993164, -0), (0.0791626, 0, 0.99707, 0), (0.0791626, 0, 0.99707, 0), (0.0791626, 0, 0.99707, 0), (0.0791626, 0, 0.99707, 0), (0.0791626, 0, 0.99707, 0), (0.855469, -0, -0.518066, -0), (0.855469, -0, -0.518066, -0), (0.855469, -0, -0.518066, -0), (0.855469, -0, -0.518066, -0), (0.713379, 0, 0.701172, 0), (0.713379, 0, 0.701172, 0), (0.713379, 0, 0.701172, 0), (0.944824, -0, -0.327393, -0), (0.944824, -0, -0.327393, -0), (0.944824, -0, -0.327393, -0), (0.944824, -0, -0.327393, -0), (0.391357, -0, -0.92041, -0), (0.391357, -0, -0.92041, -0), (0.391357, -0, -0.92041, -0), (0.391357, -0, -0.92041, -0), (0.391357, -0, -0.92041, -0), (0.391357, -0, -0.92041, -0), (0.391357, -0, -0.92041, -0), (0.391357, -0, -0.92041, -0), (0.978516, 0, 0.205078, 0), (0.978516, 0, 0.205078, 0), (0.978516, 0, 0.205078, 0), (0.696777, 0, 0.717285, 0), (0.696777, 0, 0.717285, 0), (0.696777, 0, 0.717285, 0), (0.696777, 0, 0.717285, 0), (0.696777, 0, 0.717285, 0), (0.696777, 0, 0.717285, 0), (0.696777, 0, 0.717285, 0), (0.810547, -0, -0.585449, -0), (0.810547, -0, -0.585449, -0), (0.810547, -0, -0.585449, -0), (0.810547, -0, -0.585449, -0), (0.810547, -0, -0.585449, -0), (0.810547, -0, -0.585449, -0), (0.810547, -0, -0.585449, -0), (0.10022, 0, 0.995117, 0), (0.10022, 0, 0.995117, 0), (0.10022, 0, 0.995117, 0), (0.10022, 0, 0.995117, 0), (0.10022, 0, 0.995117, 0), (0.188721, 0, 0.981934, 0), (0.188721, 0, 0.981934, 0), (0.188721, 0, 0.981934, 0), (0.188721, 0, 0.981934, 0), (0.188721, 0, 0.981934, 0), (0.434326, -0, -0.900879, -0), (0.434326, -0, -0.900879, -0), (0.434326, -0, -0.900879, -0), (0.434326, -0, -0.900879, -0), (0.434326, -0, -0.900879, -0), (0.434326, -0, -0.900879, -0), (0.182861, -0, -0.98291, -0), (0.182861, -0, -0.98291, -0), (0.959473, -0, -0.282227, -0), (0.959473, -0, -0.282227, -0), (0.959473, -0, -0.282227, -0), (0.959473, -0, -0.282227, -0), (0.959473, -0, -0.282227, -0), (0.959473, -0, -0.282227, -0), (0.0617371, 0, 0.998047, 0), (0.117554, -0, -0.993164, -0), (0.117554, -0, -0.993164, -0), (0.117554, -0, -0.993164, -0), (0.67041, 0, 0.742188, 0), (0.67041, 0, 0.742188, 0), (0.67041, 0, 0.742188, 0), (0.67041, 0, 0.742188, 0), (0.67041, 0, 0.742188, 0), (0.891113, -0, -0.453369, -0), (0.891113, -0, -0.453369, -0), (0.891113, -0, -0.453369, -0), (0.891113, -0, -0.453369, -0), (0.891113, -0, -0.453369, -0), (0.912598, 0, 0.40918, 0), (0.912598, 0, 0.40918, 0), (0.912598, 0, 0.40918, 0), (0.591309, 0, 0.806641, 0), (0.591309, 0, 0.806641, 0), (0.591309, 0, 0.806641, 0), (0.591309, 0, 0.806641, 0), (0.653809, 0, 0.756348, 0), (0.653809, 0, 0.756348, 0), (0.653809, 0, 0.756348, 0), (0.653809, 0, 0.756348, 0), (0.653809, 0, 0.756348, 0), (0.372803, -0, -0.927734, -0), (0.372803, -0, -0.927734, -0), (0.372803, -0, -0.927734, -0), (0.381348, 0, 0.924316, 0), (0.381348, 0, 0.924316, 0), (0.381348, 0, 0.924316, 0), (0.381348, 0, 0.924316, 0), (0.381348, 0, 0.924316, 0), (0.94043, -0, -0.339844, -0), (0.94043, -0, -0.339844, -0), (0.94043, -0, -0.339844, -0), (0.919922, -0, -0.391846, -0), (0.919922, -0, -0.391846, -0), (0.919922, -0, -0.391846, -0), (0.89502, -0, -0.446533, -0), (0.89502, -0, -0.446533, -0), (0.89502, -0, -0.446533, -0), (0.89502, -0, -0.446533, -0), (0.89502, -0, -0.446533, -0), (0.89502, -0, -0.446533, -0), (0.710449, 0, 0.703613, 0), (0.710449, 0, 0.703613, 0), (0.710449, 0, 0.703613, 0)]
            point3f[] positions = [(763.8012, 4.7888145, 128.98747), (778.76074, 12.93774, 202.76402), (779.31903, 15.915315, 237.53825), (816.3627, 9.056043, 225.08943), (792.47546, 5.635338, 160.56326), (725.40875, 27.597883, 239.62541), (484.0871, 116.74336, -37.729794), (541.74927, 95.43501, -20.411041), (526.21576, 95.26059, -59.29521), (545.0604, 89.38281, -96.7874), (483.9446, 114.46702, -70.39962), (487.70612, 113.72499, -114.26906), (525.26953, 102.03696, -2.1643095), (463.8115, 124.64343, -32.307785), (-49.97993, 111.08098, 505.62292), (-139.82036, 99.01793, 529.54895), (-42.717514, 92.35227, 568.29645), (-87.80049, 89.8961, 569.72925), (-134.25682, 108.2411, 493.5935), (-110.43767, 101.79838, 515.7473), (425.23593, 137.97713, -12.31951), (482.93484, 116.904076, 35.9314), (481.17352, 117.761314, 65.43581), (455.3886, 125.300865, 73.97205), (559.69653, 91.260544, 18.069685), (417.0736, 92.832985, 338.9025), (394.4108, 90.35002, 396.1798), (377.20068, 100.76108, 357.17682), (428.91727, 79.55978, 389.53333), (365.70734, 108.721725, 336.21567), (436.79184, 73.73979, 436.60303), (346.88965, 108.107895, 354.30893), (412.52225, 98.18093, 300.00555), (372.30914, 89.19512, 436.09015), (416.11935, 74.39243, 461.1642), (369.34396, 83.87681, 463.79843), (354.99487, 77.30375, 505.04892), (580.9038, 71.4381, -243.44804), (562.8429, 75.04257, -282.3576), (623.69965, 57.12084, -266.73074), (540.2411, 83.79841, -264.08728), (613.43256, 58.681473, -285.72275), (644.5715, 51.008347, -274.38315), (561.463, 78.352196, -242.8726), (-427.12045, 104.473816, -268.30887), (-458.11423, 75.23937, -338.6593), (-401.3208, 96.98637, -315.73993), (-407.7041, 101.13903, -287.7234), (-437.74725, 82.93656, -332.2584), (532.58325, 79.57211, -333.15588), (477.59375, 93.57819, -337.39847), (490.5729, 94.06065, -269.82126), (518.8616, 83.34642, -281.80362), (505.4143, 85.52081, -342.41962), (541.14935, 77.990265, -284.8648), (617.52313, 45.215416, 314.32736), (626.52356, 44.617687, 299.81845), (643.462, 34.097046, 350.70773), (617.72815, 39.160587, 346.63336), (556.95966, 60.235615, 291.47952), (571.9189, 55.604218, 307.10266), (633.5049, 41.257862, 315.139), (-173.61728, 46.46376, 702.88586), (-187.1232, 54.64663, 668.2068), (-116.398094, 56.90219, 674.9851), (-208.87169, 40.2118, 716.1295), (-84.68692, 59.493294, 679.75525), (283.9292, 59.5617, 616.5653), (226.90358, 59.37403, 653.8933), (272.13858, 30.870863, 724.8822), (247.63643, 51.26148, 671.02814), (514.511, 61.346134, 345.12256), (532.3814, 50.19103, 410.97607), (507.70462, 58.567368, 376.85043), (545.02423, 49.547592, 390.3454), (544.886, 52.68166, 350.0757), (610.20276, 31.253227, 455.88034), (651.89606, 20.32919, 482.08728), (617.20886, 22.566195, 503.67838), (618.04224, 30.772274, 384.10187), (668.7474, 16.12071, 454.63397), (582.722, 37.370026, 449.72406), (93.476006, 59.729416, -659.0449), (45.74877, 75.05228, -636.64825), (105.58217, 86.549034, -573.8537), (41.070667, 64.86525, -667.44617), (26.988573, 82.1138, -623.6479), (443.73306, 56.613136, -521.02606), (466.15924, 55.381927, -508.0177), (464.02365, 69.79716, -455.6821), (492.53174, 47.729862, -515.974), (405.27658, 72.27961, -490.30408), (524.3536, 46.511707, -484.57434), (300.48206, 23.482344, 741.1078), (285.7935, 14.382585, 792.6409), (360.1397, 22.931244, 712.9044), (336.10974, 31.344135, 694.95685), (366.8764, 9.336452, 790.7351), (626.8203, 32.147346, 402.27496), (-547.97394, 75.21168, 273.53046), (-563.14746, 78.9225, 230.11499), (-547.67194, 81.324745, 233.42581), (-597.94415, 66.431946, 217.56267), (-520.1443, 83.3678, 263.46313), (-3.4216678, 52.739693, -703.99585), (11.291984, 67.81731, -666.97186), (18.6183, 51.199486, -708.0831), (20.472853, 77.109085, -639.28094), (7.951995, 44.073017, -726.8213), (-288.60724, 32.60256, 713.96906), (-289.51993, 43.5623, 673.7579), (-268.846, 36.610245, 701.03973), (-255.17966, 34.536385, 715.3473), (525.65765, 32.992508, -559.0181), (549.2859, 31.89125, -541.63477), (466.58148, 46.257324, -546.15826), (433.4666, 48.50206, -557.3101), (508.94623, 29.55032, -586.8031), (542.92035, 24.088043, -592.5352), (492.06668, 40.267746, -543.8585), (265.71164, 9.426739, 823.5689), (341.0935, 7.757643, 790.53186), (-414.76157, 83.009636, -381.22513), (-443.46985, 75.42157, -362.2042), (-471.50024, 63.643047, -428.70297), (-451.78888, 65.45436, -439.42172), (-421.43103, 81.07435, -392.54254), (-492.8205, 58.186726, -426.64716), (-113.70353, 38.185368, -737.9545), (-168.28082, 51.336716, -645.806), (-132.9502, 43.528652, -706.90594), (-162.07036, 27.376945, -711.4498), (-116.179344, 61.162018, -652.62714), (-119.407646, 65.88219, -611.97784), (-139.18896, 47.370438, -643.91974), (-102.87231, 59.338997, -663.9823), (-44.82201, 84.96696, -607.00336), (64.037506, 19.826973, 811.42017), (65.07918, 13.638563, 842.46893), (26.81227, 12.398055, 843.05066), (44.14302, 9.879847, 864.903), (-5.398686, 11.850538, 846.48737), (37.50978, 28.007685, 776.9712), (25.22646, 19.9876, 800.28687), (59.686176, 25.112926, 788.3264), (-358.15323, 9.604683, 792.1031), (-346.70358, 18.186026, 751.14453), (-312.26425, 10.377978, 806.6717), (-270.689, 12.171063, 812.77313), (-64.8314, 43.55901, 726.6995), (-33.40894, 57.78028, 662.8761), (-19.310081, 42.575336, 726.1343), (-110.03138, 46.833015, 714.0642), (327.89355, 8.561913, 807.8471), (731.59076, 24.206411, 218.23914), (695.9813, 34.830276, 210.3421), (741.534, 15.583081, 158.32135), (693.2212, 34.843422, 236.8585), (696.6756, 25.234062, 119.8979), (728.4602, 13.742641, 142.96335), (-604.4341, 35.05088, 458.2525), (-693.56006, 17.42672, 410.33243), (-680.33844, 18.866516, 464.1375), (-615.1281, 40.594704, 398.5398), (-676.27185, 23.788918, 396.56418), (-630.5629, 25.924973, 485.8435), (-232.13412, 33.680355, -728.0548), (-260.60428, 49.107933, -665.0273), (-270.1046, 42.204567, -685.13293), (40.801582, 96.503784, -572.1789), (95.93978, 98.30409, -546.0168), (37.094593, 123.06575, -488.2288), (78.26653, 114.26409, -492.49393), (103.06967, 124.94028, -460.67783), (350.33704, 52.702927, -577.77155), (330.35724, 81.54348, -490.1635), (281.0349, 83.6697, -512.66644), (314.59167, 70.61953, -539.3965), (55.80408, 7.298831, 881.41425), (119.53292, 12.685175, 843.105), (103.3487, 8.415786, 863.7341), (-223.98483, 13.630295, 805.484), (-152.7287, 24.752262, 788.4269), (-180.94943, 26.096712, 778.7197), (-213.40244, 25.205462, 757.9422), (331.6997, 40.42316, -633.9731), (387.84427, 30.302792, -655.0836), (322.76804, 48.13203, -604.5297), (365.8549, 26.853209, -676.5056), (343.8183, 47.344303, -601.8588), (323.5547, 23.597683, -715.83453), (397.6225, 38.994034, -592.5274), (352.65012, 39.61024, -629.1414), (233.00589, 44.35056, 694.8332), (247.61942, 20.845284, 771.2379), (262.07535, 41.50652, 694.25696), (-192.66872, 88.321175, 561.3128), (-200.43936, 80.694664, 586.49744), (-219.82513, 85.18854, 561.16266), (-149.81577, 90.77956, 561.37), (-206.29039, 72.40479, 614.5127), (-150.26085, 77.54257, 589.63605), (-149.57494, 69.25691, 632.50037), (-629.0039, 68.54436, -95.91882), (-576.1172, 91.31753, -51.72336), (-641.6476, 61.308933, -116.73782), (-585.8438, 81.44659, -97.80378), (-565.15063, 88.24896, -93.702835), (-622.7711, 63.940533, -130.02408), (-619.2415, 69.17325, -109.537285), (-283.9264, 45.204273, -664.5111), (-302.4045, 19.943333, -763.4762), (-306.60947, 38.898243, -678.9278), (-314.65472, 26.166712, -728.2782), (-360.51746, 22.901815, -721.64484), (-204.3989, 19.16548, -793.415), (-250.393, 8.959384, -837.28656), (-260.52057, 13.274889, -810.4403), (-161.9913, 20.936563, -777.7407), (-215.40851, 9.01941, -847.6735), (-551.04083, 21.477875, 577.2309), (-522.68225, 25.262321, 606.5713), (-550.6468, 18.823233, 616.92773), (-481.1387, 42.24174, 555.10614), (-497.762, 38.763065, 552.2618), (-507.2497, 24.720402, 623.3517), (313.57037, 39.375175, -646.3493), (263.4665, 30.68107, -714.10944), (418.8995, 32.037876, 647.12537), (373.59915, 38.417313, 629.9888), (338.6449, 56.52191, 598.10376), (359.14243, 46.739326, 600.2082), (348.7857, 49.162224, 619.93536), (331.50623, 44.64708, 646.78406), (-667.6797, 7.7206097, 563.3414), (-236.83365, 52.345287, -661.46375), (-199.22708, 50.94425, -670.5496), (-184.9091, 36.236736, -714.8171), (155.9884, 69.511185, -617.47906), (188.99614, 66.37066, -617.0814), (142.37054, 83.9733, -584.1037), (165.10048, 59.227592, -642.56305), (98.02924, 60.14254, -628.4698), (-402.8112, 74.86506, 451.37137), (-455.2062, 72.412186, 402.42825), (-383.81787, 74.08877, 474.15903), (-391.68765, 78.93882, 436.19672), (-444.8525, 78.08743, 386.68417), (-582.8522, 8.802865, 657.12506), (-560.52344, 9.6909895, 669.43866), (-548.77045, 8.539244, 684.9432), (-340.16046, 72.535416, -519.575), (-351.69336, 52.269207, -605.7728), (-305.6166, 67.399345, -579.76636), (-382.31122, 77.72113, -483.3307), (-603.465, 41.48529, 421.46268), (-632.15826, 36.363976, 388.99283), (-595.9511, 46.123806, 390.58856), (-673.0057, 33.80673, 353.0974), (-620.3121, 44.364937, 351.70105), (-535.34106, 58.147457, 396.25967), (-509.53625, 41.77967, 492.16327), (-513.2099, 48.707386, 463.4087), (-556.2284, 21.400942, -574.2089), (-446.23508, 38.285767, -596.863), (-541.1351, 17.86343, -581.259), (-513.941, 25.702467, -549.85944), (-571.83026, 17.158495, -590.58234), (-553.47064, 52.61387, 413.46387), (-484.598, 60.73999, 429.67538), (-465.1443, 70.825836, 377.0216), (-561.075, 68.61249, 293.09003), (-516.05194, 75.1237, 318.4594), (-554.65326, 59.56081, 357.56937), (-608.75323, 21.26672, -520.4279), (-573.44135, 33.55614, -458.75394), (-583.5252, 30.667204, -480.13376), (-609.1338, 23.753048, -500.4555), (-623.45013, 21.909777, -488.8842), (-607.59155, 27.941626, -452.47418), (-440.3983, 51.12297, -491.0498), (-474.4285, 50.920513, -478.2574), (-491.7402, 44.57298, -494.35193)]
            int[] protoIndices = [0, 0, 0, 0, 0, 0, 0, 0, 0, 0, 0, 0, 0, 0, 0, 0, 0, 0, 0, 0, 0, 0, 0, 0, 0, 0, 0, 0, 0, 0, 0, 0, 0, 0, 0, 0, 0, 0, 0, 0, 0, 0, 0, 0, 0, 0, 0, 0, 0, 0, 0, 0, 0, 0, 0, 0, 0, 0, 0, 0, 0, 0, 0, 0, 0, 0, 0, 0, 0, 0, 0, 0, 0, 0, 0, 0, 0, 0, 0, 0, 0, 0, 0, 0, 0, 0, 0, 0, 0, 0, 0, 0, 0, 0, 0, 0, 0, 0, 0, 0, 0, 0, 0, 0, 0, 0, 0, 0, 0, 0, 0, 0, 0, 0, 0, 0, 0, 0, 0, 0, 0, 0, 0, 0, 0, 0, 0, 0, 0, 0, 0, 0, 0, 0, 0, 0, 0, 0, 0, 0, 0, 0, 0, 0, 0, 0, 0, 0, 0, 0, 0, 0, 0, 0, 0, 0, 0, 0, 0, 0, 0, 0, 0, 0, 0, 0, 0, 0, 0, 0, 0, 0, 0, 0, 0, 0, 0, 0, 0, 0, 0, 0, 0, 0, 0, 0, 0, 0, 0, 0, 0, 0, 0, 0, 0, 0, 0, 0, 0, 0, 0, 0, 0, 0, 0, 0, 0, 0, 0, 0, 0, 0, 0, 0, 0, 0, 0, 0, 0, 0, 0, 0, 0, 0, 0, 0, 0, 0, 0, 0, 0, 0, 0, 0, 0, 0, 0, 0, 0, 0, 0, 0, 0, 0, 0, 0, 0, 0, 0, 0, 0, 0, 0, 0, 0, 0, 0, 0, 0, 0, 0, 0, 0, 0, 0, 0, 0, 0, 0, 0, 0, 0, 0, 0, 0, 0, 0, 0, 0, 0, 0, 0, 0]
            rel prototypes = </Island/Town/Buildings/Prototypes/proto_0>
            float3[] scales = [(15.187057, 7.1544375, 22.660269), (10.841557, 4.794445, 21.616379), (14.806345, 5.3940415, 22.371784), (16.074467, 6.4361267, 16.420246), (8.628014, 4.064664, 16.377214), (11.276095, 14.588933, 21.835152), (21.486912, 9.967834, 13.945382), (16.456276, 6.439216, 22.628492), (19.571522, 12.529312, 13.749036), (20.739105, 10.651461, 16.18828), (10.906645, 14.908204, 18.02709), (14.100623, 8.804394, 11.65689), (11.45474, 11.315818, 14.394856), (8.169861, 6.692064, 13.455733), (21.289543, 4.0774193, 15.0488825), (5.991588, 10.137996, 11.723674), (13.516713, 10.549375, 16.372707), (11.36546, 6.6983895, 13.751242), (15.228488, 6.807773, 18.103012), (11.247042, 11.786915, 19.844965), (8.750723, 6.347253, 14.765676), (13.940748, 10.862303, 18.223852), (12.735004, 11.844149, 17.374279), (10.420034, 6.3758907, 19.244959), (9.82273, 11.259442, 11.757001), (8.187777, 8.414378, 15.434549), (11.06718, 11.045171, 7.238449), (12.258189, 7.903604, 21.679543), (18.341251, 14.782432, 12.084234), (10.536877, 6.813658, 9.421127), (9.818429, 12.769202, 8.66564), (16.720001, 9.938153, 12.634569), (12.734441, 4.7559724, 23.04459), (11.398843, 4.4297934, 15.994909), (8.144406, 4.846249, 14.646501), (21.072874, 6.578276, 18.052141), (12.9241905, 6.5473876, 23.145063), (9.762037, 6.451121, 18.456705), (19.27821, 13.797499, 16.469637), (18.031992, 15.315808, 11.911136), (8.423007, 12.154442, 16.56105), (8.223212, 9.15227, 11.568592), (11.218656, 10.291685, 19.602535), (12.343468, 9.909101, 9.684175), (11.677004, 5.951974, 12.885469), (7.9303765, 8.801606, 12.646984), (9.015406, 4.527385, 14.744969), (8.640379, 11.734407, 17.196959), (10.888216, 4.219694, 12.482016), (16.197327, 8.32122, 19.92231), (15.008988, 5.9920387, 23.404266), (12.464889, 12.247795, 15.60096), (10.481602, 11.115688, 14.884598), (12.605542, 13.264274, 23.231735), (8.488142, 12.229497, 12.756876), (12.743047, 11.480102, 6.4108095), (9.3313675, 4.8522696, 10.901558), (21.968798, 9.629068, 15.310273), (11.722556, 12.083974, 21.595932), (7.839265, 4.4842277, 14.585491), (13.694853, 9.442695, 20.236938), (9.438107, 9.799427, 13.68261), (15.8394985, 4.969023, 21.920797), (11.834678, 12.246481, 17.265991), (13.704212, 12.691775, 10.9548235), (9.037852, 15.689115, 16.22525), (10.603567, 5.1634483, 10.029015), (8.275321, 13.335293, 12.897404), (19.60459, 5.740003, 13.558624), (17.345194, 15.687651, 16.17791), (10.734539, 15.511937, 9.954463), (18.74165, 13.330624, 20.801836), (11.655008, 4.7028265, 6.160357), (10.762276, 10.692841, 12.238092), (9.569639, 8.007632, 10.523917), (11.008654, 8.925866, 19.926414), (8.249927, 11.700168, 15.55136), (13.065625, 10.8714485, 14.984535), (13.475052, 12.687486, 20.21336), (8.635188, 4.3200054, 16.6039), (21.863285, 10.719448, 12.327128), (17.193346, 8.333982, 9.976654), (17.579672, 4.7776003, 18.842974), (10.475676, 10.436822, 20.6799), (11.212221, 9.894287, 18.609653), (13.929299, 13.605447, 22.183573), (15.74903, 13.385972, 10.035069), (9.810968, 4.9162173, 11.31643), (16.186567, 5.585054, 8.671158), (11.479832, 7.0323143, 10.642273), (13.842046, 8.331358, 23.364264), (17.353806, 10.186156, 16.15005), (15.837679, 13.75963, 22.38874), (21.841986, 6.2539325, 11.734222), (12.009042, 9.297565, 20.276896), (9.67838, 5.035322, 15.594472), (11.396125, 5.241749, 22.486345), (12.538872, 7.793573, 24.043407), (5.7751994, 10.684811, 10.851916), (11.3401, 14.853087, 19.352226), (8.660756, 14.559117, 15.431713), (6.7114787, 9.675128, 12.196357), (18.020613, 7.674449, 17.737), (10.518888, 6.087199, 15.594726), (14.51802, 12.336643, 18.783375), (9.768872, 5.160094, 16.398924), (17.215534, 13.941267, 11.399339), (6.340523, 9.052731, 12.632848), (9.458698, 9.928146, 16.102335), (8.332608, 13.910551, 14.739983), (15.15273, 4.354031, 23.033283), (13.34287, 12.327447, 15.398968), (8.010405, 11.816231, 11.285265), (9.662857, 9.766299, 12.157782), (16.877192, 11.675749, 13.0696), (18.481588, 13.591053, 16.590956), (15.644237, 11.063385, 17.450764), (15.360465, 6.849021, 8.207025), (13.899832, 14.405008, 10.19584), (8.58619, 11.259634, 13.661468), (9.260367, 14.67121, 17.345318), (6.9380097, 14.78973, 10.121712), (7.9089985, 8.853072, 11.04467), (12.013564, 8.461281, 20.297604), (9.366222, 10.116711, 14.763088), (8.649522, 4.1901526, 9.906884), (5.9210644, 10.024657, 11.147925), (10.551324, 15.421509, 7.274653), (13.456449, 5.125413, 16.400023), (19.43108, 10.600055, 14.144351), (13.28095, 10.508685, 15.120538), (7.9953423, 6.08911, 13.894989), (7.6141806, 11.526357, 11.958538), (12.965925, 11.988968, 7.27105), (13.743441, 7.4113183, 20.357744), (10.662314, 4.0375915, 10.257093), (12.846922, 11.159747, 18.845984), (11.04126, 13.203035, 12.101509), (7.694512, 7.4406323, 12.147555), (16.486115, 6.203465, 11.580452), (9.538279, 10.194459, 8.665216), (10.854781, 10.215889, 12.697215), (12.152064, 9.352194, 14.54747), (12.726764, 14.233533, 18.846094), (12.336446, 15.936601, 11.251243), (12.698613, 4.310923, 23.675734), (6.3189654, 13.060505, 11.869494), (15.122288, 9.242074, 13.806444), (17.372261, 10.546656, 12.80747), (9.967168, 10.733462, 14.25091), (16.605883, 13.1469, 13.252981), (8.664657, 14.375109, 8.946246), (8.997908, 13.659041, 11.097238), (8.430781, 10.054798, 15.942916), (5.913583, 13.662494, 11.217087), (10.107632, 4.9018984, 17.502861), (12.181258, 13.083328, 6.2926583), (7.247057, 11.74165, 13.613668), (16.504658, 4.4220505, 14.384798), (11.419109, 10.445364, 18.773493), (10.696037, 10.250104, 19.369593), (13.627766, 11.761097, 11.207037), (6.8300095, 14.117133, 12.759786), (15.548453, 13.080594, 19.294094), (12.271273, 15.578138, 23.077454), (13.1383505, 13.429486, 7.497977), (10.318337, 14.874836, 13.795397), (8.979676, 6.0783434, 17.405874), (13.78824, 7.0293064, 17.910751), (16.528807, 7.2025514, 20.140104), (21.116234, 7.605061, 11.683267), (17.927233, 7.935031, 11.595466), (15.512408, 9.593675, 18.47849), (19.48055, 6.667511, 12.186448), (18.41435, 13.110152, 19.4123), (5.89086, 7.460893, 11.405392), (14.544455, 4.234235, 17.314896), (9.316121, 6.157862, 14.329083), (18.097052, 9.386935, 15.922036), (14.605397, 13.558973, 19.893665), (11.597269, 10.137454, 17.734243), (11.035458, 14.3104, 15.306112), (11.773858, 8.107569, 23.24435), (17.901041, 8.031924, 20.674456), (8.0675335, 14.172959, 10.037062), (15.41943, 5.501153, 18.493124), (17.578403, 9.434898, 9.337197), (10.544832, 4.8120046, 12.592926), (14.04819, 9.125533, 16.421719), (11.167176, 13.36807, 17.404018), (11.952471, 13.784099, 22.033289), (12.049422, 9.29396, 13.011356), (14.570543, 10.072974, 8.847181), (15.27209, 8.441724, 21.293633), (15.165466, 8.795087, 7.7056756), (8.5159235, 12.695602, 8.898852), (11.20682, 8.138462, 12.133252), (13.744262, 5.318154, 21.07261), (9.045989, 4.0335965, 15.594364), (18.842554, 9.753099, 11.797774), (16.671978, 8.853945, 11.107108), (19.23964, 7.32259, 18.07835), (13.504483, 7.6376014, 8.035112), (12.223663, 13.95869, 15.4649935), (15.177899, 4.836734, 9.868424), (11.536669, 5.457904, 8.436433), (9.455844, 8.797482, 11.451537), (8.892038, 6.6875453, 10.522797), (13.574424, 13.660221, 19.539722), (7.7247343, 15.673309, 10.737794), (10.636472, 11.842485, 5.611333), (15.812789, 15.317086, 9.3207445), (9.390848, 6.993924, 11.341778), (12.632064, 15.713047, 11.332516), (10.172357, 10.169278, 17.039143), (21.089668, 4.889267, 17.600346), (16.4373, 14.159838, 18.608593), (13.116263, 12.079461, 20.367126), (9.715999, 9.51173, 8.852718), (6.904336, 13.756072, 10.986833), (22.224604, 6.8582277, 14.560999), (12.272052, 14.709008, 11.363236), (20.056927, 7.803055, 10.532687), (10.968294, 15.423548, 5.553469), (8.029769, 14.141169, 10.009864), (12.57422, 7.139942, 24.252602), (13.894089, 13.711975, 7.5102143), (19.250973, 14.444665, 14.22941), (10.251661, 7.279125, 19.821602), (7.5946746, 12.087359, 12.242386), (7.030177, 12.867055, 11.606917), (11.914159, 12.057732, 17.136663), (8.248717, 9.003639, 14.343393), (15.129693, 14.71766, 16.604807), (19.030224, 11.498517, 18.426823), (8.549033, 13.87663, 13.029671), (13.902031, 12.293311, 11.191654), (10.658677, 8.457425, 16.740477), (7.7271466, 7.4065185, 14.003735), (15.212297, 7.291847, 13.864216), (12.2283535, 11.669021, 9.900717), (14.809868, 10.6475, 17.367498), (11.795771, 9.254661, 21.264881), (11.605405, 15.759252, 6.616132), (11.346084, 11.628429, 16.980825), (12.974553, 11.602618, 10.449085), (12.383662, 11.368112, 19.950527), (9.433834, 7.390547, 13.728844), (6.8118186, 5.932748, 13.512072), (8.301336, 9.803794, 9.596509), (14.075383, 5.310447, 16.126812), (10.456196, 6.5344887, 9.076711), (11.7786, 5.1162124, 19.615833), (14.534978, 10.868117, 23.79526), (17.349323, 12.136099, 19.30273), (10.111484, 10.459139, 11.29524), (7.916922, 13.170034, 11.342369), (6.019626, 14.766442, 11.560306), (11.950133, 8.494894, 16.340029), (10.581698, 13.427285, 11.389343), (12.924405, 6.4016967, 11.743977), (11.04845, 6.6330423, 14.616107), (6.4884415, 6.288283, 10.905636), (12.436635, 10.2008095, 12.580614), (15.197942, 11.763662, 22.626776), (10.769141, 5.4678354, 8.70389), (12.6032715, 15.992551, 21.412052), (15.925122, 13.752156, 10.015153), (9.010891, 13.34442, 15.276848), (10.346775, 4.13768, 8.852305), (6.4260616, 6.003932, 11.027092), (7.491855, 12.9716625, 13.110868), (12.892637, 10.038011, 24.635506), (22.837164, 8.576217, 15.040208), (13.715855, 9.731297, 19.631315), (21.231552, 7.6233735, 11.575746), (13.988603, 13.859328, 14.184496), (9.476505, 9.894116, 9.518321), (19.182423, 8.835084, 12.925482), (6.569591, 12.147566, 11.254418), (15.204918, 13.451337, 16.639372), (10.226263, 10.034843, 6.62142), (11.3028, 4.722238, 16.125736)]

            def Scope "Prototypes"
            {
                def Mesh "proto_0"
                {
                    float3[] extent = [(-0.5, 0, -0.5), (0.5, 1, 0.5)]
                    int[] faceVertexCounts = [4, 4, 4, 4, 4, 4]
                    int[] faceVertexIndices = [0, 1, 2, 3, 4, 7, 6, 5, 0, 4, 5, 1, 1, 5, 6, 2, 2, 6, 7, 3, 3, 7, 4, 0]
                    point3f[] points = [(-0.5, 0, -0.5), (0.5, 0, -0.5), (0.5, 0, 0.5), (-0.5, 0, 0.5), (-0.5, 1, -0.5), (0.5, 1, -0.5), (0.5, 1, 0.5), (-0.5, 1, 0.5)]
                    uniform token subdivisionScheme = "none"
                }
            }
        }
    }
}

